Coordinates
version=1
nRows=27
nColumns=12
inDegrees=yes

Units are S.I. units (second, meters, Newtons, ...)
Angles are in degrees

endheader
time	SC_y	SC_z	SC_x	AC_y	AC_z	AC_x	GH_y	GH_z	GH_yy	EL_x	PS_y
       0.0              -40.74           33.2           24.6          49.55        -0.8265          18.76          82.08        -0.8504         -51.55          107.4          64.96
   0.01082              -40.74           33.2          24.61          49.55        -0.8266          18.75          82.08        -0.8402         -51.54          107.4          64.97
   0.02163              -40.74           33.2          24.62          49.55        -0.8266          18.75          82.08        -0.8295         -51.53          107.4          64.97
   0.03245              -40.73           33.2          24.63          49.55        -0.8266          18.75          82.08         -0.818         -51.52          107.4          64.97
   0.04327              -40.73           33.2          24.64          49.55        -0.8267          18.74          82.08        -0.8057          -51.5          107.4          64.98
   0.05408              -40.72          33.19          24.65          49.55        -0.8267          18.74          82.08        -0.7927         -51.49          107.4          64.98
    0.0649              -40.72          33.19          24.66          49.55        -0.8268          18.73          82.08        -0.7788         -51.47          107.4          64.99
   0.07571              -40.71          33.19          24.68          49.55        -0.8268          18.72          82.08        -0.7639         -51.46          107.3          64.99
   0.08653              -40.71          33.18          24.69          49.55        -0.8269          18.72          82.08         -0.748         -51.44          107.3           65.0
   0.09735               -40.7          33.18           24.7          49.55        -0.8269          18.71          82.08        -0.7309         -51.42          107.3          65.01
    0.1082              -40.69          33.18          24.72          49.56         -0.827           18.7          82.08        -0.7125          -51.4          107.3          65.01
     0.119              -40.68          33.17          24.74          49.56         -0.827           18.7          82.07        -0.6928         -51.38          107.3          65.02
    0.1298              -40.68          33.17          24.75          49.56        -0.8271          18.69          82.07        -0.6715         -51.36          107.3          65.03
    0.1406              -40.67          33.16          24.77          49.56        -0.8272          18.68          82.07        -0.6485         -51.33          107.3          65.04
    0.1514              -40.66          33.16          24.79          49.56        -0.8273          18.67          82.07        -0.6236          -51.3          107.2          65.05
    0.1622              -40.65          33.15          24.82          49.56        -0.8274          18.66          82.07        -0.5966         -51.27          107.2          65.05
    0.1731              -40.64          33.15          24.84          49.56        -0.8275          18.65          82.07        -0.5672         -51.24          107.2          65.07
    0.1839              -40.63          33.14          24.87          49.56        -0.8276          18.64          82.07        -0.5352         -51.21          107.2          65.08
    0.1947              -40.61          33.13           24.9          49.56        -0.8277          18.62          82.07        -0.5003         -51.17          107.1          65.09
    0.2055               -40.6          33.13          24.93          49.56        -0.8278          18.61          82.07        -0.4621         -51.13          107.1           65.1
    0.2163              -40.58          33.12          24.97          49.56        -0.8279          18.59          82.07        -0.4201         -51.08          107.1          65.12
    0.2271              -40.57          33.11          25.01          49.56        -0.8281          18.58          82.07         -0.374         -51.03          107.0          65.14
     0.238              -40.55           33.1          25.05          49.56        -0.8283          18.56          82.07        -0.3229         -50.97          107.0          65.15
    0.2488              -40.53          33.09           25.1          49.57        -0.8284          18.53          82.07        -0.2664         -50.91          107.0          65.17
    0.2596               -40.5          33.07          25.15          49.57        -0.8287          18.51          82.06        -0.2036         -50.84          106.9           65.2
    0.2704              -40.48          33.06          25.21          49.57        -0.8289          18.48          82.06        -0.1334         -50.77          106.9          65.22
    0.2812              -40.45          33.04          25.28          49.57        -0.8291          18.45          82.06        -0.0549         -50.68          106.8          65.25
